<svg viewBox="0 0 64 64" xmlns="http://www.w3.org/2000/svg">
  <defs>
    <linearGradient id="gb" x1="0%" y1="0%" x2="100%" y2="100%">
      <stop offset="0%" stop-color="#60a5fa"/>
      <stop offset="100%" stop-color="#2563eb"/>
    </linearGradient>
    <linearGradient id="go" x1="0%" y1="100%" x2="100%" y2="0%">
      <stop offset="0%" stop-color="#fb923c"/>
      <stop offset="100%" stop-color="#ea580c"/>
    </linearGradient>
    <radialGradient id="gc" cx="50%" cy="50%" r="50%">
      <stop offset="0%" stop-color="#ffffff"/>
      <stop offset="100%" stop-color="#ffffff" stop-opacity="0"/>
    </radialGradient>
  </defs>
  <path d="M32 3 L56.5 17.5 L56.5 46.5 L32 61 L7.5 46.5 L7.5 17.5 Z" fill="#000000" stroke="rgba(255,255,255,0.2)" stroke-width="1"/>
  <path d="M16 20 Q24 22 32 32 Q40 42 48 44" stroke="url(#gb)" stroke-width="3.5" stroke-linecap="round" fill="none"/>
  <path d="M16 44 Q24 42 32 32 Q40 22 48 20" stroke="url(#go)" stroke-width="3.5" stroke-linecap="round" fill="none"/>
  <circle cx="32" cy="32" r="4.5" fill="url(#gc)"/>
  <circle cx="32" cy="32" r="2" fill="#ffffff"/>
  <circle cx="16" cy="20" r="1.2" fill="#60a5fa"/>
  <circle cx="48" cy="20" r="1.2" fill="#fb923c"/>
  <circle cx="16" cy="44" r="1.2" fill="#fb923c"/>
  <circle cx="48" cy="44" r="1.2" fill="#60a5fa"/>
</svg>
